<?xml version="1.0" encoding="UTF-8"?>
<svg version="1.1" xmlns="http://www.w3.org/2000/svg" width="54" height="55">
<path d="M0 0 C17.82 0 35.64 0 54 0 C54 18.15 54 36.3 54 55 C36.18 55 18.36 55 0 55 C0 36.85 0 18.7 0 0 Z " fill="#595FE6" transform="translate(0,0)"/>
<path d="M0 0 C16.5172237 -1.61933566 16.5172237 -1.61933566 21.421875 2.2265625 C23.84023407 4.70782686 25.9940281 7.17752698 28 10 C26.59698853 13.18673962 24.92234929 15.32221406 22.4375 17.75 C21.81746094 18.36359375 21.19742188 18.9771875 20.55859375 19.609375 C19 21 19 21 18 21 C17.67 18.03 17.34 15.06 17 12 C13.7 11.67 10.4 11.34 7 11 C7.33 14.3 7.66 17.6 8 21 C8.72445313 21.00257812 9.44890625 21.00515625 10.1953125 21.0078125 C19.08375736 21.36335029 19.08375736 21.36335029 22.6875 24.75 C25.1310338 28.18415561 25.25051947 29.0187716 25 33 C8.61829434 34.60604957 8.61829434 34.60604957 3.54296875 30.9140625 C0.9416078 28.37596784 -1.21052662 26.1663604 -3 23 C-2.94771492 20.19751945 -2.17837812 19.21046051 -0.37109375 17.078125 C0.26699219 16.47484375 0.90507812 15.8715625 1.5625 15.25 C2.52349609 14.32960938 2.52349609 14.32960938 3.50390625 13.390625 C3.99761719 12.93171875 4.49132812 12.4728125 5 12 C3.80482157 9.40413735 2.96228144 7.96551446 0.8125 6 C0.214375 5.34 -0.38375 4.68 -1 4 C-0.61328125 1.875 -0.61328125 1.875 0 0 Z " fill="#F8F8FE" transform="translate(15,12)"/>
<path d="M0 0 C1.64574566 -0.02688151 3.29161413 -0.04634123 4.9375 -0.0625 C5.85402344 -0.07410156 6.77054688 -0.08570312 7.71484375 -0.09765625 C10 0 10 0 11 1 C11.07205511 2.68608966 11.08386068 4.37500659 11.0625 6.0625 C11.05347656 6.98160156 11.04445313 7.90070312 11.03515625 8.84765625 C11.02355469 9.55792969 11.01195312 10.26820312 11 11 C9.35425434 11.02688151 7.70838587 11.04634123 6.0625 11.0625 C5.14597656 11.07410156 4.22945312 11.08570313 3.28515625 11.09765625 C1 11 1 11 0 10 C-0.07205511 8.31391034 -0.08386068 6.62499341 -0.0625 4.9375 C-0.05347656 4.01839844 -0.04445313 3.09929688 -0.03515625 2.15234375 C-0.02355469 1.44207031 -0.01195313 0.73179688 0 0 Z " fill="#656BEC" transform="translate(22,23)"/>
</svg>
